<svg version="1.1" xmlns="http://www.w3.org/2000/svg" width="288" height="288">

<path d="M0 0 C23.76 0 47.52 0 72 0 C72 4.62 72 9.24 72 14 C81.57 14 91.14 14 101 14 C101 23.57 101 33.14 101 43 C105.62 43 110.24 43 115 43 C115 52.57 115 62.14 115 72 C110.38 72 105.76 72 101 72 C101 86.19 101 100.38 101 115 C91.43 115 81.86 115 72 115 C72 119.62 72 124.24 72 129 C76.95 129 81.9 129 87 129 C87 133.95 87 138.9 87 144 C91.62 144 96.24 144 101 144 C101 162.81 101 181.62 101 201 C96.05 201 91.1 201 86 201 C86 205.95 86 210.9 86 216 C48.38 216 10.76 216 -28 216 C-28 211.05 -28 206.1 -28 201 C-32.95 201 -37.9 201 -43 201 C-43 182.19 -43 163.38 -43 144 C-38.38 144 -33.76 144 -29 144 C-29 139.05 -29 134.1 -29 129 C-24.05 129 -19.1 129 -14 129 C-14 124.38 -14 119.76 -14 115 C-23.57 115 -33.14 115 -43 115 C-43 81.67 -43 48.34 -43 14 C-28.81 14 -14.62 14 0 14 C0 9.38 0 4.76 0 0 Z " fill="#4D3116" transform="translate(115,29)" data-index="1" style="opacity: 1;"></path>
<path d="M0 0 C9.57 0 19.14 0 29 0 C29 4.62 29 9.24 29 14 C38.24 14 47.48 14 57 14 C57 9.38 57 4.76 57 0 C66.57 0 76.14 0 86 0 C86 4.62 86 9.24 86 14 C90.95 14 95.9 14 101 14 C101 18.95 101 23.9 101 29 C105.62 29 110.24 29 115 29 C115 47.81 115 66.62 115 86 C110.05 86 105.1 86 100 86 C100 90.95 100 95.9 100 101 C62.38 101 24.76 101 -14 101 C-14 96.05 -14 91.1 -14 86 C-18.95 86 -23.9 86 -29 86 C-29 67.19 -29 48.38 -29 29 C-24.38 29 -19.76 29 -15 29 C-15 24.05 -15 19.1 -15 14 C-10.05 14 -5.1 14 0 14 C0 9.38 0 4.76 0 0 Z " fill="#334D96" transform="translate(101,144)" data-index="2" style="opacity: 1;"></path>
<path d="M0 0 C23.43 0 46.86 0 71 0 C71 4.62 71 9.24 71 14 C80.57 14 90.14 14 100 14 C100 23.57 100 33.14 100 43 C104.62 43 109.24 43 114 43 C114 52.57 114 62.14 114 72 C109.38 72 104.76 72 100 72 C100 81.57 100 91.14 100 101 C95.38 101 90.76 101 86 101 C86 91.43 86 81.86 86 72 C76.43 72 66.86 72 57 72 C57 67.05 57 62.1 57 57 C47.43 57 37.86 57 28 57 C28 42.81 28 28.62 28 14 C32.62 14 37.24 14 42 14 C42 9.71 42 5.42 42 1 C28.14 1 14.28 1 0 1 C0 0.67 0 0.34 0 0 Z " fill="#41221F" transform="translate(116,29)" data-index="3"></path>
<path d="M0 0 C19.14 0 38.28 0 58 0 C58 28.38 58 56.76 58 86 C38.86 86 19.72 86 0 86 C0 57.62 0 29.24 0 0 Z " fill="#5676DA" transform="translate(115,159)" data-index="4" style="opacity: 1;"></path>
<path d="M0 0 C9.57 0 19.14 0 29 0 C29 4.62 29 9.24 29 14 C38.57 14 48.14 14 58 14 C58 23.57 58 33.14 58 43 C62.62 43 67.24 43 72 43 C72 47.62 72 52.24 72 57 C52.86 57 33.72 57 14 57 C14 61.62 14 66.24 14 71 C4.76 71 -4.48 71 -14 71 C-13.9375 57.5625 -13.9375 57.5625 -13.90991211 53.31860352 C-13.90741455 52.22475342 -13.90491699 51.13090332 -13.90234375 50.00390625 C-13.89710693 48.87799072 -13.89187012 47.7520752 -13.88647461 46.59204102 C-13.70454552 44.07029129 -13.70454552 44.07029129 -15 43 C-15.10003289 40.86646826 -15.13081048 38.72962458 -15.1328125 36.59375 C-15.13410156 35.29308594 -15.13539063 33.99242187 -15.13671875 32.65234375 C-15.13462402 31.97155762 -15.1325293 31.29077148 -15.13037109 30.58935547 C-15.1250224 28.50871485 -15.1303168 26.42829011 -15.13671875 24.34765625 C-15.13542969 23.04699219 -15.13414062 21.74632812 -15.1328125 20.40625 C-15.13168457 19.20291016 -15.13055664 17.99957031 -15.12939453 16.75976562 C-15 14 -15 14 -14 13 C-11.64686445 12.92728259 -9.29166332 12.91629132 -6.9375 12.9375 C-5.64714844 12.94652344 -4.35679687 12.95554687 -3.02734375 12.96484375 C-2.02832031 12.97644531 -1.02929688 12.98804687 0 13 C0 8.71 0 4.42 0 0 Z " fill="#66441F" transform="translate(144,87)" data-index="5"></path>
<path d="M0 0 C14.19 0.33 28.38 0.66 43 1 C43 5.29 43 9.58 43 14 C38.38 14 33.76 14 29 14 C29 28.19 29 42.38 29 57 C38.57 57 48.14 57 58 57 C58 57.33 58 57.66 58 58 C43.81 58.33 29.62 58.66 15 59 C14.67 44.48 14.34 29.96 14 15 C-0.19 15 -14.38 15 -29 15 C-29 33.81 -29 52.62 -29 72 C-33.29 72 -37.58 72 -42 72 C-42.495 43.29 -42.495 43.29 -43 14 C-28.81 14 -14.62 14 0 14 C0 9.38 0 4.76 0 0 Z " fill="#522C27" transform="translate(115,29)" data-index="6"></path>
<path d="M0 0 C18.48 0 36.96 0 56 0 C56 9.24 56 18.48 56 28 C49.565 28.495 49.565 28.495 43 29 C42.67 33.62 42.34 38.24 42 43 C32.76 43 23.52 43 14 43 C13.505 35.575 13.505 35.575 13 28 C8.71 28 4.42 28 0 28 C0 18.76 0 9.52 0 0 Z " fill="#6785E7" transform="translate(116,173)" data-index="7"></path>
<path d="M0 0 C0.33 14.52 0.66 29.04 1 44 C5.29 44 9.58 44 14 44 C14 48.29 14 52.58 14 57 C9.38 57.33 4.76 57.66 0 58 C-0.33 67.57 -0.66 77.14 -1 87 C-1.33 87 -1.66 87 -2 87 C-2 77.43 -2 67.86 -2 58 C-6.29 58 -10.58 58 -15 58 C-15 39.52 -15 21.04 -15 2 C-19.62 2 -24.24 2 -29 2 C-29 20.48 -29 38.96 -29 58 C-33.62 58 -38.24 58 -43 58 C-43.33 39.19 -43.66 20.38 -44 1 C-36.925625 0.835 -29.85125 0.67 -22.5625 0.5 C-19.20880249 0.42168945 -19.20880249 0.42168945 -15.78735352 0.34179688 C-14.02620464 0.30077204 -12.26505557 0.25975581 -10.50390625 0.21875 C-9.58057495 0.1971582 -8.65724365 0.17556641 -7.70593262 0.15332031 C-6.83303589 0.13301758 -5.96013916 0.11271484 -5.06079102 0.09179688 C-3.91828636 0.06514954 -3.91828636 0.06514954 -2.75270081 0.03796387 C-1.8352618 0.01809195 -0.91765419 0 0 0 Z " fill="#3C1F1B" transform="translate(130,43)" data-index="8"></path>
<path d="M0 0 C4.62 0 9.24 0 14 0 C14 23.76 14 47.52 14 72 C4.76 72 -4.48 72 -14 72 C-15.01697897 59.49996715 -15.11778208 47.09901556 -15.0625 34.5625 C-15.05747118 32.55924592 -15.05291074 30.55599061 -15.04882812 28.55273438 C-15.03794072 23.70179181 -15.02075358 18.85090997 -15 14 C-10.05 14 -5.1 14 0 14 C0 9.38 0 4.76 0 0 Z " fill="#3454A7" transform="translate(101,173)" data-index="9" style="opacity: 1;"></path>

<path d="M0 0 C9.57 0 19.14 0 29 0 C29 14.19 29 28.38 29 43 C24.05 43 19.1 43 14 43 C14 47.95 14 52.9 14 58 C4.76 58 -4.48 58 -14 58 C-14 57.67 -14 57.34 -14 57 C-9.38 57 -4.76 57 0 57 C0 38.19 0 19.38 0 0 Z " fill="#3656AA" transform="translate(187,187)" data-index="11" style="opacity: 1;"></path>
<path d="M0 0 C4.62 0 9.24 0 14 0 C14 9.24 14 18.48 14 28 C9.05 28 4.1 28 -1 28 C-1 42.19 -1 56.38 -1 71 C-5.62 71 -10.24 71 -15 71 C-15 52.19 -15 33.38 -15 14 C-10.05 14 -5.1 14 0 14 C0 9.38 0 4.76 0 0 Z " fill="#243E80" transform="translate(87,159)" data-index="12" style="opacity: 1;"></path>
<path d="M0 0 C4.62 0 9.24 0 14 0 C14 28.05 14 56.1 14 85 C9.38 85 4.76 85 0 85 C0 56.95 0 28.9 0 0 Z " fill="#572E28" transform="translate(101,45)" data-index="13"></path>
<path d="M0 0 C19.14 0 38.28 0 58 0 C58 4.62 58 9.24 58 14 C38.86 14 19.72 14 0 14 C0 9.38 0 4.76 0 0 Z " fill="#4C64AD" transform="translate(115,159)" data-index="14" style="opacity: 1;"></path>
<path d="M0 0 C14.19 0 28.38 0 43 0 C43 0.33 43 0.66 43 1 C33.43 1 23.86 1 14 1 C14 19.81 14 38.62 14 58 C9.71 58 5.42 58 1 58 C0.505 29.29 0.505 29.29 0 0 Z " fill="#61352F" transform="translate(72,43)" data-index="15"></path>

<path d="M0 0 C4.62 0 9.24 0 14 0 C14 14.19 14 28.38 14 43 C9.38 43 4.76 43 0 43 C0 28.81 0 14.62 0 0 Z " fill="#3B5FBF" transform="translate(202,187)" data-index="17"></path>

<path d="M0 0 C4.62 0 9.24 0 14 0 C14 4.62 14 9.24 14 14 C18.95 14 23.9 14 29 14 C29 18.62 29 23.24 29 28 C19.43 28 9.86 28 0 28 C0 18.76 0 9.52 0 0 Z " fill="#233D80" transform="translate(187,159)" data-index="19"></path>
<path d="M0 0 C4.29 0 8.58 0 13 0 C13 9.57 13 19.14 13 29 C18.28 29 23.56 29 29 29 C29 29.33 29 29.66 29 30 C24.38 30 19.76 30 15 30 C15 33.96 15 37.92 15 42 C10.05 42 5.1 42 0 42 C0 28.14 0 14.28 0 0 Z " fill="#593B1D" transform="translate(115,101)" data-index="20"></path>
<path d="M0 0 C4.95 0 9.9 0 15 0 C15 9.57 15 19.14 15 29 C10.05 29 5.1 29 0 29 C0 19.43 0 9.86 0 0 Z " fill="#E7E6E6" transform="translate(129,101)" data-index="21"></path>
<path d="M0 0 C4.95 0 9.9 0 15 0 C15 9.57 15 19.14 15 29 C10.05 29 5.1 29 0 29 C0 19.43 0 9.86 0 0 Z " fill="#F2F1F1" transform="translate(187,101)" data-index="22"></path>
<path d="M0 0 C4.95 0 9.9 0 15 0 C15 9.57 15 19.14 15 29 C10.05 29 5.1 29 0 29 C0 19.43 0 9.86 0 0 Z " fill="#512B26" transform="translate(158,43)" data-index="23"></path>
<path d="M0 0 C9.57 0 19.14 0 29 0 C29 4.62 29 9.24 29 14 C19.43 14 9.86 14 0 14 C0 9.38 0 4.76 0 0 Z " fill="#294690" transform="translate(158,144)" data-index="24"></path>
<path d="M0 0 C9.57 0 19.14 0 29 0 C29 4.62 29 9.24 29 14 C19.43 14 9.86 14 0 14 C0 9.38 0 4.76 0 0 Z " fill="#2A4690" transform="translate(101,144)" data-index="25" style="opacity: 1;"></path>
<path d="M0 0 C4.62 0 9.24 0 14 0 C14 9.57 14 19.14 14 29 C9.38 29 4.76 29 0 29 C0 19.43 0 9.86 0 0 Z " fill="#050200" transform="translate(202,101)" data-index="26"></path>
<path d="M0 0 C4.62 0 9.24 0 14 0 C14 9.57 14 19.14 14 29 C9.38 29 4.76 29 0 29 C0 19.43 0 9.86 0 0 Z " fill="#4B2823" transform="translate(101,101)" data-index="27"></path>
<path d="M0 0 C4.95 0 9.9 0 15 0 C15 8.91 15 17.82 15 27 C10.05 27 5.1 27 0 27 C0 18.09 0 9.18 0 0 Z " fill="#522B26" transform="translate(187,45)" data-index="28"></path>
<path d="M0 0 C4.62 0 9.24 0 14 0 C14 9.24 14 18.48 14 28 C9.38 28.33 4.76 28.66 0 29 C0 19.43 0 9.86 0 0 Z " fill="#060300" transform="translate(144,101)" data-index="29"></path>
<path d="M0 0 C9.24 0 18.48 0 28 0 C28 4.62 28 9.24 28 14 C18.76 14 9.52 14 0 14 C0 9.38 0 4.76 0 0 Z " fill="#5A3B1A" transform="translate(130,144)" data-index="30"></path>
<path d="M0 0 C23.76 0 47.52 0 72 0 C72 0.33 72 0.66 72 1 C57.81 1 43.62 1 29 1 C29 5.62 29 10.24 29 15 C24.38 15 19.76 15 15 15 C15 10.38 15 5.76 15 1 C10.38 1 5.76 1 1 1 C1 5.62 1 10.24 1 15 C0.67 15 0.34 15 0 15 C0 10.05 0 5.1 0 0 Z " fill="#495DA2" transform="translate(86,158)" data-index="31"></path>

<path d="M0 0 C4.95 0 9.9 0 15 0 C15 4.95 15 9.9 15 15 C10.05 15 5.1 15 0 15 C0 10.05 0 5.1 0 0 Z " fill="#B1B2B6" transform="translate(72,230)" data-index="33" style="opacity: 1; visibility: hidden; fill: rgb(255, 255, 255); stroke: rgb(255, 255, 255);"></path>
<path d="M0 0 C4.95 0 9.9 0 15 0 C15 4.95 15 9.9 15 15 C10.05 15 5.1 15 0 15 C0 10.05 0 5.1 0 0 Z " fill="#664624" transform="translate(187,86)" data-index="34"></path>
<path d="M0 0 C4.62 0 9.24 0 14 0 C14 9.24 14 18.48 14 28 C13.67 28 13.34 28 13 28 C13 23.38 13 18.76 13 14 C6.565 14.495 6.565 14.495 0 15 C0 10.05 0 5.1 0 0 Z " fill="#FEFEFE" transform="translate(130,101)" data-index="35"></path>
<path d="M0 0 C4.62 0 9.24 0 14 0 C14 4.62 14 9.24 14 14 C9.38 14 4.76 14 0 14 C0 9.38 0 4.76 0 0 Z " fill="#2C4892" transform="translate(101,230)" data-index="36" style="opacity: 1;"></path>
<path d="M0 0 C4.62 0 9.24 0 14 0 C14 4.62 14 9.24 14 14 C9.38 14 4.76 14 0 14 C0 9.38 0 4.76 0 0 Z " fill="#3555AA" transform="translate(173,173)" data-index="37"></path>
<path d="M0 0 C4.29 0.33 8.58 0.66 13 1 C13 5.29 13 9.58 13 14 C9.04 14 5.08 14 1 14 C1 18.62 1 23.24 1 28 C0.67 28 0.34 28 0 28 C0 18.76 0 9.52 0 0 Z " fill="#2B4790" transform="translate(187,159)" data-index="38"></path>
<path d="M0 0 C0 9.24 0 18.48 0 28 C-0.33 28 -0.66 28 -1 28 C-1 23.38 -1 18.76 -1 14 C-4.96 14 -8.92 14 -13 14 C-13 9.71 -13 5.42 -13 1 C-1.125 0 -1.125 0 0 0 Z " fill="#2B4790" transform="translate(101,159)" data-index="39" style="opacity: 1;"></path>
<path d="M0 0 C3.96 0 7.92 0 12 0 C12.33 4.95 12.66 9.9 13 15 C8.38 15 3.76 15 -1 15 C-0.67 10.05 -0.34 5.1 0 0 Z " fill="#1B1A19" transform="translate(203,115)" data-index="40"></path>
<path d="M0 0 C4.29 0 8.58 0 13 0 C13 4.62 13 9.24 13 14 C8.71 14 4.42 14 0 14 C0 9.38 0 4.76 0 0 Z " fill="#181919" transform="translate(145,115)" data-index="41"></path>
<path d="M0 0 C4.62 0 9.24 0 14 0 C14.09765625 9.27734375 14.09765625 9.27734375 14 12 C13 13 13 13 10.05859375 13.09765625 C6.70572917 13.06510417 3.35286458 13.03255208 0 13 C0 8.71 0 4.42 0 0 Z " fill="#4B2824" transform="translate(101,45)" data-index="42"></path>
</svg>